<svg xmlns="http://www.w3.org/2000/svg" viewBox="0 0 108.9263 70.7831"><defs><style>.cls-1{fill:#60399d;}.cls-2{fill:#865bca;}</style></defs><title>Recurso 1</title><g id="Capa_2" data-name="Capa 2"><g id="OBJECTS"><path class="cls-1" d="M105.182,44.4518l-1.1057,1.1056a12.7847,12.7847,0,0,1-18.08,0L63.3687,22.93a12.7857,12.7857,0,0,1,0-18.08l1.1057-1.1051a12.7842,12.7842,0,0,1,18.08,0L105.182,26.3719a12.7848,12.7848,0,0,1,0,18.08"/><path class="cls-2" d="M83.1072,66.4857l21.5221-21.5221a13.5659,13.5659,0,0,0,0-19.1849c-.2008-.2008-.4077-.3917-.6178-.5769l-17.95-17.95a13.5635,13.5635,0,0,1,.0031,17.9468c-.21.1862-.4191.3782-.6209.58L63.9218,47.3A13.5661,13.5661,0,1,0,83.1072,66.4857"/><path class="cls-1" d="M3.7444,26.3313,4.85,25.2256a12.7847,12.7847,0,0,1,18.08,0L45.5576,47.8533a12.7845,12.7845,0,0,1,0,18.08l-1.1057,1.1052a12.7835,12.7835,0,0,1-18.08,0L3.7444,44.4111a12.7845,12.7845,0,0,1,0-18.08"/><path class="cls-2" d="M25.8194,4.2971,4.2973,25.8191a13.5666,13.5666,0,0,0,0,19.1855c.2007.2.4077.3911.6173.5769l17.95,17.9494a13.5643,13.5643,0,0,1-.0031-17.9468c.2111-.1863.42-.3777.6214-.5795L45.0048,23.4825A13.5661,13.5661,0,0,0,25.8194,4.2971"/></g></g></svg>